<svg xmlns="http://www.w3.org/2000/svg" width="100" height="100" fill="none" viewBox="0 0 100 100"><g clip-path="url(#clip0_278_14)"><mask id="mask0_278_14" style="mask-type:luminance" width="63" height="64" x="19" y="18" maskUnits="userSpaceOnUse"><path fill="#fff" d="M80.8182 44.1818H51V56.5455H68.1637C66.5637 64.4 59.8727 68.9091 51 68.9091C40.5273 68.9091 32.0909 60.4727 32.0909 50C32.0909 39.5273 40.5273 31.0909 51 31.0909C55.5091 31.0909 59.5818 32.6909 62.7818 35.3091L72.0909 26C66.4182 21.0545 59.1455 18 51 18C33.2546 18 19 32.2546 19 50C19 67.7455 33.2546 82 51 82C67 82 81.5455 70.3637 81.5455 50C81.5455 48.1091 81.2546 46.0727 80.8182 44.1818Z"/></mask><g mask="url(#mask0_278_14)"><path fill="#FBBC05" d="M16.0909 68.909V31.0908L40.8182 49.9999L16.0909 68.909Z"/></g><mask id="mask1_278_14" style="mask-type:luminance" width="63" height="64" x="19" y="18" maskUnits="userSpaceOnUse"><path fill="#fff" d="M80.8182 44.1818H51V56.5455H68.1637C66.5637 64.4 59.8727 68.9091 51 68.9091C40.5273 68.9091 32.0909 60.4727 32.0909 50C32.0909 39.5273 40.5273 31.0909 51 31.0909C55.5091 31.0909 59.5818 32.6909 62.7818 35.3091L72.0909 26C66.4182 21.0545 59.1455 18 51 18C33.2546 18 19 32.2546 19 50C19 67.7455 33.2546 82 51 82C67 82 81.5455 70.3637 81.5455 50C81.5455 48.1091 81.2546 46.0727 80.8182 44.1818Z"/></mask><g mask="url(#mask1_278_14)"><path fill="#EA4335" d="M16.0909 31.0908L40.8182 49.9999L51 41.1272L85.9091 35.4545V15.0908H16.0909V31.0908Z"/></g><mask id="mask2_278_14" style="mask-type:luminance" width="63" height="64" x="19" y="18" maskUnits="userSpaceOnUse"><path fill="#fff" d="M80.8182 44.1818H51V56.5455H68.1637C66.5637 64.4 59.8727 68.9091 51 68.9091C40.5273 68.9091 32.0909 60.4727 32.0909 50C32.0909 39.5273 40.5273 31.0909 51 31.0909C55.5091 31.0909 59.5818 32.6909 62.7818 35.3091L72.0909 26C66.4182 21.0545 59.1455 18 51 18C33.2546 18 19 32.2546 19 50C19 67.7455 33.2546 82 51 82C67 82 81.5455 70.3637 81.5455 50C81.5455 48.1091 81.2546 46.0727 80.8182 44.1818Z"/></mask><g mask="url(#mask2_278_14)"><path fill="#34A853" d="M16.0909 68.909L59.7273 35.4545L71.2182 36.909L85.9091 15.0908V84.909H16.0909V68.909Z"/></g><mask id="mask3_278_14" style="mask-type:luminance" width="63" height="64" x="19" y="18" maskUnits="userSpaceOnUse"><path fill="#fff" d="M80.8182 44.1818H51V56.5455H68.1637C66.5637 64.4 59.8727 68.9091 51 68.9091C40.5273 68.9091 32.0909 60.4727 32.0909 50C32.0909 39.5273 40.5273 31.0909 51 31.0909C55.5091 31.0909 59.5818 32.6909 62.7818 35.3091L72.0909 26C66.4182 21.0545 59.1455 18 51 18C33.2546 18 19 32.2546 19 50C19 67.7455 33.2546 82 51 82C67 82 81.5455 70.3637 81.5455 50C81.5455 48.1091 81.2546 46.0727 80.8182 44.1818Z"/></mask><g mask="url(#mask3_278_14)"><path fill="#4285F4" d="M85.9091 84.909L40.8182 49.9999L35 45.6363L85.9091 31.0908V84.909Z"/></g></g><defs><clipPath id="clip0_278_14"><rect width="64" height="64" fill="#fff" transform="translate(18 18)"/></clipPath></defs></svg>